<?xml version="1.0" encoding="UTF-8"?>
<svg xmlns="http://www.w3.org/2000/svg" xmlns:xlink="http://www.w3.org/1999/xlink" width="512px" height="512px" viewBox="0 0 128 128" version="1.1">
<g id="surface1">
<path style=" stroke:none;fill-rule:nonzero;fill:rgb(0%,0%,0%);fill-opacity:1;" d="M 5.332031 58.667969 L 122.667969 58.667969 C 125.613281 58.667969 128 61.054688 128 64 C 128 66.945312 125.613281 69.332031 122.667969 69.332031 L 5.332031 69.332031 C 2.386719 69.332031 0 66.945312 0 64 C 0 61.054688 2.386719 58.667969 5.332031 58.667969 Z M 5.332031 58.667969 "/>
<path style=" stroke:none;fill-rule:nonzero;fill:rgb(0%,0%,0%);fill-opacity:1;" d="M 5.332031 21.332031 L 122.667969 21.332031 C 125.613281 21.332031 128 23.722656 128 26.667969 C 128 29.613281 125.613281 32 122.667969 32 L 5.332031 32 C 2.386719 32 0 29.613281 0 26.667969 C 0 23.722656 2.386719 21.332031 5.332031 21.332031 Z M 5.332031 21.332031 "/>
<path style=" stroke:none;fill-rule:nonzero;fill:rgb(0%,0%,0%);fill-opacity:1;" d="M 5.332031 96 L 122.667969 96 C 125.613281 96 128 98.386719 128 101.332031 C 128 104.277344 125.613281 106.667969 122.667969 106.667969 L 5.332031 106.667969 C 2.386719 106.667969 0 104.277344 0 101.332031 C 0 98.386719 2.386719 96 5.332031 96 Z M 5.332031 96 "/>
</g>
</svg>
